{
  "source": "C:\\Users\\Peter\\Desktop\\stuff\\MIUN\\quantitative_research\\video_compression\\videos\\BVI-HD\\BVI-HD_CDVL_videos\\ORIG\\PlasmaAveragePan_1920x1080_60fps.mp4",
  "output": "C:\\Users\\Peter\\Desktop\\stuff\\MIUN\\quantitative_research\\video_compression\\compressed_videos\\BVI-HD\\hevc\\4\\PlasmaAveragePan_1920x1080_60fps_hevc.mp4",
  "codec": "hevc",
  "ok": "Input #0, mov,mp4,m4a,3gp,3g2,mj2, from 'C:\\Users\\Peter\\Desktop\\stuff\\MIUN\\quantitative_research\\video_compression\\videos\\BVI-HD\\BVI-HD_CDVL_videos\\ORIG\\PlasmaAveragePan_1920x1080_60fps.mp4':\n  Metadata:\n    major_brand     : isom\n    minor_version   : 512\n    compatible_brands: isomiso2avc1mp41\n    encoder         : Lavf54.28.101\n  Duration: 00:00:05.00, start: 0.000000, bitrate: 73730 kb/s\n  Stream #0:0[0x1](und): Video: h264 (High 4:4:4 Predictive) (avc1 / 0x31637661), yuv420p(progressive), 1920x1080, 73727 kb/s, 60 fps, 60 tbr, 60 tbn (default)\n    Metadata:\n      handler_name    : VideoHandler\n      vendor_id       : [0][0][0][0]\n[out#0/mp4 @ 00000278fcb07900] Codec AVOption b:a (set bitrate (in bits/s)) has not been used for any stream. The most likely reason is either wrong type (e.g. a video option with no video streams) or that it is a private option of some decoder which was not actually used for any stream.\nStream mapping:\n  Stream #0:0 -> #0:0 (h264 (native) -> hevc (libx265))\nPress [q] to stop, [?] for help\n[libx265 @ 00000278fc9f2c00] Unknown option: \"aq-mode.\nx265 [info]: HEVC encoder version 4.1+190-8f11c33ac\nx265 [info]: build info [Windows][GCC 15.1.0][64 bit] 10bit\nx265 [info]: using cpu capabilities: MMX2 SSE2Fast LZCNT SSSE3 SSE4.2 AVX FMA3 BMI2 AVX2\nx265 [info]: Main 10 profile, Level-4.1 (Main tier)\nx265 [info]: Thread pool created using 12 threads\nx265 [info]: Slices                              : 1\nx265 [info]: frame threads / pool features       : 3 / wpp(17 rows)\nx265 [info]: Coding QT: max CU size, min CU size : 64 / 8\nx265 [info]: Residual QT: max TU size, max depth : 32 / 1 inter / 1 intra\nx265 [info]: ME / range / subpel / merge         : star / 57 / 3 / 3\nx265 [info]: Keyframe min / max / scenecut / bias  : 25 / 250 / 40 / 5.00 \nx265 [info]: Lookahead / bframes / badapt        : 25 / 4 / 2\nx265 [info]: b-pyramid / weightp / weightb       : 1 / 1 / 0\nx265 [info]: References / ref-limit  cu / depth  : 4 / on / on\nx265 [info]: AQ: mode / str / qg-size / cu-tree  : 2 / 1.0 / 32 / 1\nx265 [info]: Rate Control / qCompress            : ABR-4000 kbps / 0.60\nx265 [info]: VBV/HRD buffer / max-rate / init    : 4000 / 4000 / 0.750\nx265 [info]: tools: rect limit-modes rd=4 psy-rd=2.00 rdoq=2 psy-rdoq=1.00\nx265 [info]: tools: rskip mode=1 signhide tmvp strong-intra-smoothing lslices=4\nx265 [info]: tools: deblock sao dhdr10-info\nOutput #0, mp4, to 'C:\\Users\\Peter\\Desktop\\stuff\\MIUN\\quantitative_research\\video_compression\\compressed_videos\\BVI-HD\\hevc\\4\\PlasmaAveragePan_1920x1080_60fps_hevc.mp4':\n  Metadata:\n    major_brand     : isom\n    minor_version   : 512\n    compatible_brands: isomiso2avc1mp41\n    encoder         : Lavf62.3.100\n  Stream #0:0(und): Video: hevc (hev1 / 0x31766568), yuv420p10le(tv, progressive), 1920x1080, q=2-31, 4000 kb/s, 60 fps, 15360 tbn (default)\n    Metadata:\n      encoder         : Lavc62.11.100 libx265\n      handler_name    : VideoHandler\n      vendor_id       : [0][0][0][0]\n    Side data:\n      cpb: bitrate max/min/avg: 4000000/0/4000000 buffer size: 4000000 vbv_delay: N/A\nframe=    0 fps=0.0 q=0.0 size=       0KiB time=N/A bitrate=N/A speed=N/A elapsed=0:00:00.52    \nframe=    0 fps=0.0 q=0.0 size=       0KiB time=N/A bitrate=N/A speed=N/A elapsed=0:00:01.08    \nframe=    0 fps=0.0 q=0.0 size=       0KiB time=N/A bitrate=N/A speed=N/A elapsed=0:00:01.61    \nframe=    0 fps=0.0 q=0.0 size=       0KiB time=N/A bitrate=N/A speed=N/A elapsed=0:00:02.12    \nframe=    0 fps=0.0 q=0.0 size=       0KiB time=N/A bitrate=N/A speed=N/A elapsed=0:00:02.65    \nframe=    0 fps=0.0 q=0.0 size=       0KiB time=N/A bitrate=N/A speed=N/A elapsed=0:00:03.16    \nframe=    0 fps=0.0 q=0.0 size=       0KiB time=N/A bitrate=N/A speed=N/A elapsed=0:00:03.67    \nframe=    0 fps=0.0 q=0.0 size=       0KiB time=N/A bitrate=N/A speed=N/A elapsed=0:00:04.19    \nframe=    0 fps=0.0 q=0.0 size=       0KiB time=N/A bitrate=N/A speed=N/A elapsed=0:00:04.74    \nframe=    1 fps=0.2 q=35.9 size=       0KiB time=-00:00:00.01 bitrate=N/A speed=N/A elapsed=0:00:05.27    \nframe=    1 fps=0.2 q=35.9 size=       0KiB time=-00:00:00.01 bitrate=N/A speed=N/A elapsed=0:00:05.80    \nframe=    2 fps=0.3 q=43.8 size=       0KiB time=00:00:00.00 bitrate=N/A speed=   0x elapsed=0:00:06.33    \nframe=    2 fps=0.3 q=43.8 size=       0KiB time=00:00:00.00 bitrate=N/A speed=   0x elapsed=0:00:06.84    \nframe=    3 fps=0.4 q=45.3 size=       0KiB time=00:00:00.01 bitrate=  21.1kbits/s speed=0.00226x elapsed=0:00:07.37    \nframe=    3 fps=0.4 q=45.3 size=       0KiB time=00:00:00.01 bitrate=  21.1kbits/s speed=0.00212x elapsed=0:00:07.87    \nframe=    3 fps=0.4 q=45.3 size=       0KiB time=00:00:00.01 bitrate=  21.1kbits/s speed=0.00198x elapsed=0:00:08.39    \nframe=    4 fps=0.4 q=40.4 size=       0KiB time=00:00:00.03 bitrate=  10.6kbits/s speed=0.00374x elapsed=0:00:08.92    \nframe=    4 fps=0.4 q=40.4 size=       0KiB time=00:00:00.03 bitrate=  10.6kbits/s speed=0.00352x elapsed=0:00:09.45    \nframe=    4 fps=0.4 q=40.4 size=       0KiB time=00:00:00.03 bitrate=  10.6kbits/s speed=0.00333x elapsed=0:00:10.00    \nframe=    5 fps=0.5 q=40.3 size=       0KiB time=00:00:00.05 bitrate=   7.0kbits/s speed=0.00476x elapsed=0:00:10.51    \nframe=    6 fps=0.5 q=39.5 size=       0KiB time=00:00:00.06 bitrate=   5.3kbits/s speed=0.00604x elapsed=0:00:11.03    \nframe=    7 fps=0.6 q=36.4 size=       0KiB time=00:00:00.08 bitrate=   4.2kbits/s speed=0.00722x elapsed=0:00:11.54    \nframe=    8 fps=0.7 q=37.3 size=       0KiB time=00:00:00.10 bitrate=   3.5kbits/s speed=0.00829x elapsed=0:00:12.06    \nframe=    8 fps=0.6 q=37.3 size=       0KiB time=00:00:00.10 bitrate=   3.5kbits/s speed=0.00794x elapsed=0:00:12.59    \nframe=    9 fps=0.7 q=34.3 size=       0KiB time=00:00:00.11 bitrate=   3.0kbits/s speed=0.00888x elapsed=0:00:13.13    \nframe=    9 fps=0.7 q=34.3 size=       0KiB time=00:00:00.11 bitrate=   3.0kbits/s speed=0.00854x elapsed=0:00:13.66    \nframe=   10 fps=0.7 q=35.1 size=       0KiB time=00:00:00.13 bitrate=   2.6kbits/s speed=0.00941x elapsed=0:00:14.17    \nframe=   11 fps=0.7 q=31.5 size=       0KiB time=00:00:00.15 bitrate=   2.3kbits/s speed=0.0102x elapsed=0:00:14.70    \nframe=   12 fps=0.8 q=34.8 size=       0KiB time=00:00:00.16 bitrate=   2.1kbits/s speed=0.0109x elapsed=0:00:15.24    \nframe=   12 fps=0.8 q=34.8 size=       0KiB time=00:00:00.16 bitrate=   2.1kbits/s speed=0.0106x elapsed=0:00:15.77    \nframe=   13 fps=0.8 q=35.1 size=       0KiB time=00:00:00.18 bitrate=   1.9kbits/s speed=0.0112x elapsed=0:00:16.30    \nframe=   14 fps=0.8 q=34.2 size=       0KiB time=00:00:00.20 bitrate=   1.8kbits/s speed=0.0119x elapsed=0:00:16.83    \nframe=   14 fps=0.8 q=34.2 size=       0KiB time=00:00:00.20 bitrate=   1.8kbits/s speed=0.0115x elapsed=0:00:17.39    \nframe=   14 fps=0.8 q=34.2 size=       0KiB time=00:00:00.20 bitrate=   1.8kbits/s speed=0.0112x elapsed=0:00:17.93    \nframe=   15 fps=0.8 q=31.2 size=       0KiB time=00:00:00.21 bitrate=   1.6kbits/s speed=0.0117x elapsed=0:00:18.46    \nframe=   15 fps=0.8 q=31.2 size=       0KiB time=00:00:00.21 bitrate=   1.6kbits/s speed=0.0114x elapsed=0:00:18.99    \nframe=   15 fps=0.8 q=31.2 size=       0KiB time=00:00:00.21 bitrate=   1.6kbits/s speed=0.0111x elapsed=0:00:19.50    \nframe=   16 fps=0.8 q=33.0 size=       0KiB time=00:00:00.23 bitrate=   1.5kbits/s speed=0.0117x elapsed=0:00:20.02    \nframe=   16 fps=0.8 q=33.0 size=       0KiB time=00:00:00.23 bitrate=   1.5kbits/s speed=0.0113x elapsed=0:00:20.56    \nframe=   16 fps=0.8 q=33.0 size=       0KiB time=00:00:00.23 bitrate=   1.5kbits/s speed=0.0111x elapsed=0:00:21.10    \nframe=   17 fps=0.8 q=34.1 size=       0KiB time=00:00:00.25 bitrate=   1.4kbits/s speed=0.0116x elapsed=0:00:21.64    \nframe=   17 fps=0.8 q=34.1 size=       0KiB time=00:00:00.25 bitrate=   1.4kbits/s speed=0.0113x elapsed=0:00:22.16    \nframe=   18 fps=0.8 q=30.8 size=       0KiB time=00:00:00.26 bitrate=   1.3kbits/s speed=0.0117x elapsed=0:00:22.71    \nframe=   19 fps=0.8 q=32.8 size=       0KiB time=00:00:00.26 bitrate=   1.3kbits/s speed=0.0115x elapsed=0:00:23.27    \nframe=   19 fps=0.8 q=32.8 size=       0KiB time=00:00:00.28 bitrate=   1.2kbits/s speed=0.0119x elapsed=0:00:23.81    \nframe=   19 fps=0.8 q=32.8 size=       0KiB time=00:00:00.28 bitrate=   1.2kbits/s speed=0.0116x elapsed=0:00:24.32    \nframe=   20 fps=0.8 q=33.9 size=       0KiB time=00:00:00.30 bitrate=   1.2kbits/s speed=0.0121x elapsed=0:00:24.85    \nframe=   20 fps=0.8 q=33.9 size=       0KiB time=00:00:00.30 bitrate=   1.2kbits/s speed=0.0118x elapsed=0:00:25.37    \nframe=   21 fps=0.8 q=30.0 size=       0KiB time=00:00:00.31 bitrate=   1.1kbits/s speed=0.0122x elapsed=0:00:25.91    \nframe=   21 fps=0.8 q=30.0 size=       0KiB time=00:00:00.31 bitrate=   1.1kbits/s speed=0.012x elapsed=0:00:26.43    \nframe=   22 fps=0.8 q=32.6 size=       0KiB time=00:00:00.33 bitrate=   1.1kbits/s speed=0.0123x elapsed=0:00:26.99    \nframe=   22 fps=0.8 q=32.6 size=       0KiB time=00:00:00.33 bitrate=   1.1kbits/s speed=0.0121x elapsed=0:00:27.50    \nframe=   22 fps=0.8 q=32.6 size=       0KiB time=00:00:00.33 bitrate=   1.1kbits/s speed=0.0119x elapsed=0:00:28.02    \nframe=   23 fps=0.8 q=33.9 size=       0KiB time=00:00:00.35 bitrate=   1.0kbits/s speed=0.0123x elapsed=0:00:28.56    \nframe=   23 fps=0.8 q=33.9 size=       0KiB time=00:00:00.35 bitrate=   1.0kbits/s speed=0.012x elapsed=0:00:29.08    \nframe=   24 fps=0.8 q=33.1 size=       0KiB time=00:00:00.36 bitrate=   1.0kbits/s speed=0.0124x elapsed=0:00:29.59    \nframe=   25 fps=0.8 q=29.8 size=       0KiB time=00:00:00.38 bitrate=   0.9kbits/s speed=0.0127x elapsed=0:00:30.11    \nframe=   25 fps=0.8 q=29.8 size=       0KiB time=00:00:00.38 bitrate=   0.9kbits/s speed=0.0125x elapsed=0:00:30.64    \nframe=   27 fps=0.9 q=33.8 size=       0KiB time=00:00:00.41 bitrate=   0.8kbits/s speed=0.0134x elapsed=0:00:31.15    \nframe=   27 fps=0.9 q=33.8 size=       0KiB time=00:00:00.41 bitrate=   0.8kbits/s speed=0.0131x elapsed=0:00:31.69    \nframe=   27 fps=0.8 q=33.8 size=       0KiB time=00:00:00.41 bitrate=   0.8kbits/s speed=0.0129x elapsed=0:00:32.22    \nframe=   27 fps=0.8 q=33.8 size=       0KiB time=00:00:00.41 bitrate=   0.8kbits/s speed=0.0127x elapsed=0:00:32.75    \nframe=   28 fps=0.8 q=33.0 size=       0KiB time=00:00:00.43 bitrate=   0.8kbits/s speed=0.013x elapsed=0:00:33.29    \nframe=   28 fps=0.8 q=33.0 size=       0KiB time=00:00:00.43 bitrate=   0.8kbits/s speed=0.0128x elapsed=0:00:33.82    \nframe=   29 fps=0.8 q=33.0 size=       0KiB time=00:00:00.45 bitrate=   0.8kbits/s speed=0.0131x elapsed=0:00:34.34    \nframe=   30 fps=0.9 q=29.8 size=       0KiB time=00:00:00.46 bitrate=   0.8kbits/s speed=0.0134x elapsed=0:00:34.89    \nframe=   31 fps=0.9 q=31.9 size=       0KiB time=00:00:00.48 bitrate=   0.7kbits/s speed=0.0136x elapsed=0:00:35.44    \nframe=   31 fps=0.9 q=31.9 size=       0KiB time=00:00:00.48 bitrate=   0.7kbits/s speed=0.0134x elapsed=0:00:35.97    \nframe=   31 fps=0.8 q=31.9 size=       0KiB time=00:00:00.48 bitrate=   0.7kbits/s speed=0.0132x elapsed=0:00:36.49    \nframe=   32 fps=0.9 q=32.9 size=       0KiB time=00:00:00.50 bitrate=   0.7kbits/s speed=0.0135x elapsed=0:00:37.01    \nframe=   32 fps=0.9 q=32.9 size=       0KiB time=00:00:00.50 bitrate=   0.7kbits/s speed=0.0133x elapsed=0:00:37.53    \nframe=   32 fps=0.8 q=32.9 size=       0KiB time=00:00:00.50 bitrate=   0.7kbits/s speed=0.0131x elapsed=0:00:38.08    \nframe=   33 fps=0.9 q=32.8 size=       0KiB time=00:00:00.51 bitrate=   0.7kbits/s speed=0.0134x elapsed=0:00:38.60    \nframe=   33 fps=0.8 q=32.8 size=       0KiB time=00:00:00.51 bitrate=   0.7kbits/s speed=0.0132x elapsed=0:00:39.12    \nframe=   34 fps=0.9 q=32.7 size=       0KiB time=00:00:00.53 bitrate=   0.7kbits/s speed=0.0135x elapsed=0:00:39.64    \nframe=   35 fps=0.9 q=29.1 size=       0KiB time=00:00:00.55 bitrate=   0.6kbits/s speed=0.0137x elapsed=0:00:40.17    \nframe=   35 fps=0.9 q=29.1 size=       0KiB time=00:00:00.55 bitrate=   0.6kbits/s speed=0.0135x elapsed=0:00:40.69    \nframe=   36 fps=0.9 q=31.2 size=       0KiB time=00:00:00.56 bitrate=   0.6kbits/s speed=0.0137x elapsed=0:00:41.21    \nframe=   37 fps=0.9 q=32.8 size=     256KiB time=00:00:00.58 bitrate=3595.7kbits/s speed=0.014x elapsed=0:00:41.76    \nframe=   37 fps=0.9 q=32.8 size=     256KiB time=00:00:00.58 bitrate=3595.7kbits/s speed=0.0138x elapsed=0:00:42.28    \nframe=   37 fps=0.9 q=32.8 size=     256KiB time=00:00:00.58 bitrate=3595.7kbits/s speed=0.0136x elapsed=0:00:42.84    \nframe=   37 fps=0.9 q=32.8 size=     256KiB time=00:00:00.58 bitrate=3595.7kbits/s speed=0.0134x elapsed=0:00:43.37    \nframe=   38 fps=0.9 q=32.8 size=     256KiB time=00:00:00.60 bitrate=3495.8kbits/s speed=0.0137x elapsed=0:00:43.91    \nframe=   38 fps=0.9 q=32.8 size=     256KiB time=00:00:00.60 bitrate=3495.8kbits/s speed=0.0135x elapsed=0:00:44.45    \nframe=   38 fps=0.8 q=32.8 size=     256KiB time=00:00:00.60 bitrate=3495.8kbits/s speed=0.0133x elapsed=0:00:45.00    \nframe=   38 fps=0.8 q=32.8 size=     256KiB time=00:00:00.60 bitrate=3495.8kbits/s speed=0.0132x elapsed=0:00:45.53    \nframe=   38 fps=0.8 q=32.8 size=     256KiB time=00:00:00.60 bitrate=3495.8kbits/s speed=0.013x elapsed=0:00:46.05    \nframe=   39 fps=0.8 q=29.1 size=     256KiB time=00:00:00.61 bitrate=3401.4kbits/s speed=0.0132x elapsed=0:00:46.57    \nframe=   39 fps=0.8 q=29.1 size=     256KiB time=00:00:00.61 bitrate=3401.4kbits/s speed=0.0131x elapsed=0:00:47.11    \nframe=   40 fps=0.8 q=31.3 size=     256KiB time=00:00:00.63 bitrate=3311.9kbits/s speed=0.0133x elapsed=0:00:47.63    \nframe=   40 fps=0.8 q=31.3 size=     256KiB time=00:00:00.63 bitrate=3311.9kbits/s speed=0.0132x elapsed=0:00:48.14    \nframe=   41 fps=0.8 q=32.9 size=     256KiB time=00:00:00.65 bitrate=3226.9kbits/s speed=0.0134x elapsed=0:00:48.65    \nframe=   43 fps=0.9 q=29.7 size=     256KiB time=00:00:00.68 bitrate=3069.5kbits/s speed=0.0139x elapsed=0:00:49.17    \nframe=   44 fps=0.9 q=31.9 size=     256KiB time=00:00:00.70 bitrate=2996.4kbits/s speed=0.0141x elapsed=0:00:49.69    \nframe=   44 fps=0.9 q=31.9 size=     256KiB time=00:00:00.70 bitrate=2996.4kbits/s speed=0.0139x elapsed=0:00:50.20    \nframe=   45 fps=0.9 q=33.5 size=     256KiB time=00:00:00.71 bitrate=2926.7kbits/s speed=0.0141x elapsed=0:00:50.72    \nframe=   46 fps=0.9 q=28.8 size=     256KiB time=00:00:00.73 bitrate=2860.2kbits/s speed=0.0143x elapsed=0:00:51.24    \nframe=   46 fps=0.9 q=28.8 size=     256KiB time=00:00:00.73 bitrate=2860.2kbits/s speed=0.0142x elapsed=0:00:51.76    \nframe=   47 fps=0.9 q=32.0 size=     256KiB time=00:00:00.75 bitrate=2796.7kbits/s speed=0.0143x elapsed=0:00:52.29    \nframe=   47 fps=0.9 q=32.0 size=     256KiB time=00:00:00.75 bitrate=2796.7kbits/s speed=0.0142x elapsed=0:00:52.79    \nframe=   48 fps=0.9 q=33.4 size=     256KiB time=00:00:00.76 bitrate=2735.9kbits/s speed=0.0144x elapsed=0:00:53.32    \nframe=   48 fps=0.9 q=33.4 size=     256KiB time=00:00:00.76 bitrate=2735.9kbits/s speed=0.0142x elapsed=0:00:53.83    \nframe=   48 fps=0.9 q=33.4 size=     256KiB time=00:00:00.76 bitrate=2735.9kbits/s speed=0.0141x elapsed=0:00:54.37    \nframe=   49 fps=0.9 q=33.2 size=     256KiB time=00:00:00.78 bitrate=2677.7kbits/s speed=0.0143x elapsed=0:00:54.89    \nframe=   50 fps=0.9 q=29.0 size=     256KiB time=00:00:00.80 bitrate=2621.9kbits/s speed=0.0144x elapsed=0:00:55.43    \nframe=   50 fps=0.9 q=29.0 size=     256KiB time=00:00:00.80 bitrate=2621.9kbits/s speed=0.0143x elapsed=0:00:55.97    \nframe=   50 fps=0.9 q=29.0 size=     256KiB time=00:00:00.80 bitrate=2621.9kbits/s speed=0.0142x elapsed=0:00:56.49    \nframe=   51 fps=0.9 q=31.9 size=     256KiB time=00:00:00.81 bitrate=2568.4kbits/s speed=0.0143x elapsed=0:00:57.02    \nframe=   52 fps=0.9 q=33.6 size=     256KiB time=00:00:00.83 bitrate=2517.0kbits/s speed=0.0145x elapsed=0:00:57.57    \nframe=   53 fps=0.9 q=33.5 size=     256KiB time=00:00:00.85 bitrate=2467.7kbits/s speed=0.0146x elapsed=0:00:58.10    \nframe=   53 fps=0.9 q=33.5 size=     256KiB time=00:00:00.85 bitrate=2467.7kbits/s speed=0.0145x elapsed=0:00:58.62    \nframe=   53 fps=0.9 q=33.5 size=     256KiB time=00:00:00.85 bitrate=2467.7kbits/s speed=0.0144x elapsed=0:00:59.14    \nframe=   54 fps=0.9 q=29.4 size=     256KiB time=00:00:00.86 bitrate=2420.2kbits/s speed=0.0145x elapsed=0:00:59.66    \nframe=   55 fps=0.9 q=31.6 size=     256KiB time=00:00:00.88 bitrate=2374.5kbits/s speed=0.0147x elapsed=0:01:00.20    \nframe=   56 fps=0.9 q=33.3 size=     256KiB time=00:00:00.90 bitrate=2330.6kbits/s speed=0.0148x elapsed=0:01:00.73    \nframe=   56 fps=0.9 q=33.3 size=     256KiB time=00:00:00.90 bitrate=2330.6kbits/s speed=0.0147x elapsed=0:01:01.26    \nframe=   56 fps=0.9 q=33.3 size=     256KiB time=00:00:00.90 bitrate=2330.6kbits/s speed=0.0146x elapsed=0:01:01.78    \nframe=   56 fps=0.9 q=33.3 size=     256KiB time=00:00:00.90 bitrate=2330.6kbits/s speed=0.0144x elapsed=0:01:02.31    \nframe=   56 fps=0.9 q=33.3 size=     256KiB time=00:00:00.90 bitrate=2330.6kbits/s speed=0.0143x elapsed=0:01:02.84    \nframe=   57 fps=0.9 q=33.6 size=     256KiB time=00:00:00.91 bitrate=2288.2kbits/s speed=0.0145x elapsed=0:01:03.38    \nframe=   57 fps=0.9 q=33.6 size=     256KiB time=00:00:00.91 bitrate=2288.2kbits/s speed=0.0143x elapsed=0:01:03.90    \nframe=   58 fps=0.9 q=30.0 size=     256KiB time=00:00:00.93 bitrate=2247.3kbits/s speed=0.0145x elapsed=0:01:04.44    \nframe=   58 fps=0.9 q=30.0 size=     256KiB time=00:00:00.93 bitrate=2247.3kbits/s speed=0.0144x elapsed=0:01:04.96    \nframe=   58 fps=0.9 q=30.0 size=     256KiB time=00:00:00.93 bitrate=2247.3kbits/s speed=0.0143x elapsed=0:01:05.48    \nframe=   58 fps=0.9 q=30.0 size=     256KiB time=00:00:00.93 bitrate=2247.3kbits/s speed=0.0141x elapsed=0:01:06.00    \nframe=   59 fps=0.9 q=31.7 size=     256KiB time=00:00:00.95 bitrate=2207.9kbits/s speed=0.0143x elapsed=0:01:06.53    \nframe=   59 fps=0.9 q=31.7 size=     256KiB time=00:00:00.95 bitrate=2207.9kbits/s speed=0.0142x elapsed=0:01:07.06    \nframe=   60 fps=0.9 q=33.6 size=     256KiB time=00:00:00.96 bitrate=2169.8kbits/s speed=0.0143x elapsed=0:01:07.58    \nframe=   60 fps=0.9 q=33.6 size=     256KiB time=00:00:00.96 bitrate=2169.8kbits/s speed=0.0142x elapsed=0:01:08.11    \nframe=   60 fps=0.9 q=33.6 size=     256KiB time=00:00:00.96 bitrate=2169.8kbits/s speed=0.0141x elapsed=0:01:08.62    \nframe=   60 fps=0.9 q=33.6 size=     256KiB time=00:00:00.96 bitrate=2169.8kbits/s speed=0.014x elapsed=0:01:09.14    \nframe=   61 fps=0.9 q=33.6 size=     256KiB time=00:00:00.98 bitrate=2133.1kbits/s speed=0.0141x elapsed=0:01:09.67    \nframe=   63 fps=0.9 q=31.3 size=     256KiB time=00:00:01.01 bitrate=2063.1kbits/s speed=0.0145x elapsed=0:01:10.19    \nframe=   63 fps=0.9 q=31.3 size=     256KiB time=00:00:01.01 bitrate=2063.1kbits/s speed=0.0144x elapsed=0:01:10.71    \nframe=   63 fps=0.9 q=31.3 size=     256KiB time=00:00:01.01 bitrate=2063.1kbits/s speed=0.0143x elapsed=0:01:11.22    \nframe=   64 fps=0.9 q=33.6 size=     256KiB time=00:00:01.03 bitrate=2029.8kbits/s speed=0.0144x elapsed=0:01:11.77    \nframe=   64 fps=0.9 q=33.6 size=     256KiB time=00:00:01.03 bitrate=2029.8kbits/s speed=0.0143x elapsed=0:01:12.28    \nframe=   64 fps=0.9 q=33.6 size=     256KiB time=00:00:01.03 bitrate=2029.8kbits/s speed=0.0142x elapsed=0:01:12.82    \nframe=   65 fps=0.9 q=33.5 size=     256KiB time=00:00:01.05 bitrate=1997.6kbits/s speed=0.0143x elapsed=0:01:13.34    \nframe=   65 fps=0.9 q=33.5 size=     256KiB time=00:00:01.05 bitrate=1997.6kbits/s speed=0.0142x elapsed=0:01:13.84    \nframe=   66 fps=0.9 q=29.3 size=     256KiB time=00:00:01.06 bitrate=1966.4kbits/s speed=0.0143x elapsed=0:01:14.38    \nframe=   67 fps=0.9 q=31.2 size=     256KiB time=00:00:01.08 bitrate=1936.2kbits/s speed=0.0145x elapsed=0:01:14.91    \nframe=   67 fps=0.9 q=31.2 size=     256KiB time=00:00:01.08 bitrate=1936.2kbits/s speed=0.0144x elapsed=0:01:15.45    \nframe=   67 fps=0.9 q=31.2 size=     256KiB time=00:00:01.08 bitrate=1936.2kbits/s speed=0.0143x elapsed=0:01:15.99    \nframe=   67 fps=0.9 q=31.2 size=     256KiB time=00:00:01.08 bitrate=1936.2kbits/s speed=0.0142x elapsed=0:01:16.53    \nframe=   68 fps=0.9 q=33.4 size=     512KiB time=00:00:01.10 bitrate=3813.3kbits/s speed=0.0143x elapsed=0:01:17.05    \nframe=   68 fps=0.9 q=33.4 size=     512KiB time=00:00:01.10 bitrate=3813.3kbits/s speed=0.0142x elapsed=0:01:17.58    \nframe=   69 fps=0.9 q=33.5 size=     512KiB time=00:00:01.11 bitrate=3756.4kbits/s speed=0.0143x elapsed=0:01:18.10    \nframe=   69 fps=0.9 q=33.5 size=     512KiB time=00:00:01.11 bitrate=3756.4kbits/s speed=0.0142x elapsed=0:01:18.62    \nframe=   69 fps=0.9 q=33.5 size=     512KiB time=00:00:01.11 bitrate=3756.4kbits/s speed=0.0141x elapsed=0:01:19.15    \nframe=   70 fps=0.9 q=29.8 size=     512KiB time=00:00:01.13 bitrate=3701.2kbits/s speed=0.0142x elapsed=0:01:19.68    \nframe=   70 fps=0.9 q=29.8 size=     512KiB time=00:00:01.13 bitrate=3701.2kbits/s speed=0.0141x elapsed=0:01:20.25    \nframe=   70 fps=0.9 q=29.8 size=     512KiB time=00:00:01.13 bitrate=3701.2kbits/s speed=0.014x elapsed=0:01:20.78    \nframe=   71 fps=0.9 q=31.3 size=     512KiB time=00:00:01.15 bitrate=3647.5kbits/s speed=0.0141x elapsed=0:01:21.32    \nframe=   71 fps=0.9 q=31.3 size=     512KiB time=00:00:01.15 bitrate=3647.5kbits/s speed=0.0141x elapsed=0:01:21.84    \nframe=   72 fps=0.9 q=33.4 size=     512KiB time=00:00:01.16 bitrate=3595.4kbits/s speed=0.0142x elapsed=0:01:22.36    \nframe=   73 fps=0.9 q=33.6 size=     512KiB time=00:00:01.18 bitrate=3544.8kbits/s speed=0.0143x elapsed=0:01:22.88    \nframe=   74 fps=0.9 q=29.5 size=     512KiB time=00:00:01.20 bitrate=3495.5kbits/s speed=0.0144x elapsed=0:01:23.40    \nframe=   74 fps=0.9 q=29.5 size=     512KiB time=00:00:01.20 bitrate=3495.5kbits/s speed=0.0143x elapsed=0:01:23.93    \nframe=   75 fps=0.9 q=32.2 size=     512KiB time=00:00:01.21 bitrate=3447.7kbits/s speed=0.0144x elapsed=0:01:24.44    \nframe=   76 fps=0.9 q=33.4 size=     512KiB time=00:00:01.23 bitrate=3401.1kbits/s speed=0.0145x elapsed=0:01:24.99    \nframe=   76 fps=0.9 q=33.4 size=     512KiB time=00:00:01.23 bitrate=3401.1kbits/s speed=0.0144x elapsed=0:01:25.52    \nframe=   76 fps=0.9 q=33.4 size=     512KiB time=00:00:01.23 bitrate=3401.1kbits/s speed=0.0143x elapsed=0:01:26.04    \nframe=   77 fps=0.9 q=33.2 size=     512KiB time=00:00:01.25 bitrate=3355.7kbits/s speed=0.0144x elapsed=0:01:26.57    \nframe=   77 fps=0.9 q=33.2 size=     512KiB time=00:00:01.25 bitrate=3355.7kbits/s speed=0.0144x elapsed=0:01:27.10    \nframe=   77 fps=0.9 q=33.2 size=     512KiB time=00:00:01.25 bitrate=3355.7kbits/s speed=0.0143x elapsed=0:01:27.63    \nframe=   77 fps=0.9 q=33.2 size=     512KiB time=00:00:01.25 bitrate=3355.7kbits/s speed=0.0142x elapsed=0:01:28.16    \nframe=   78 fps=0.9 q=33.3 size=     512KiB time=00:00:01.26 bitrate=3311.6kbits/s speed=0.0143x elapsed=0:01:28.69    \nframe=   78 fps=0.9 q=33.3 size=     512KiB time=00:00:01.26 bitrate=3311.6kbits/s speed=0.0142x elapsed=0:01:29.22    \nframe=   79 fps=0.9 q=30.2 size=     512KiB time=00:00:01.28 bitrate=3268.6kbits/s speed=0.0143x elapsed=0:01:29.75    \nframe=   79 fps=0.9 q=30.2 size=     512KiB time=00:00:01.28 bitrate=3268.6kbits/s speed=0.0142x elapsed=0:01:30.27    \nframe=   80 fps=0.9 q=31.6 size=     512KiB time=00:00:01.30 bitrate=3226.7kbits/s speed=0.0143x elapsed=0:01:30.82    \nframe=   80 fps=0.9 q=31.6 size=     512KiB time=00:00:01.30 bitrate=3226.7kbits/s speed=0.0142x elapsed=0:01:31.34    \nframe=   81 fps=0.9 q=33.2 size=     512KiB time=00:00:01.31 bitrate=3185.8kbits/s speed=0.0143x elapsed=0:01:31.86    \nframe=   81 fps=0.9 q=33.2 size=     512KiB time=00:00:01.31 bitrate=3185.8kbits/s speed=0.0143x elapsed=0:01:32.39    \nframe=   82 fps=0.9 q=33.5 size=     512KiB time=00:00:01.33 bitrate=3146.0kbits/s speed=0.0143x elapsed=0:01:32.93    \nframe=   83 fps=0.9 q=30.2 size=     512KiB time=00:00:01.35 bitrate=3107.2kbits/s speed=0.0144x elapsed=0:01:33.45    \nframe=   83 fps=0.9 q=30.2 size=     512KiB time=00:00:01.35 bitrate=3107.2kbits/s speed=0.0144x elapsed=0:01:33.97    \nframe=   84 fps=0.9 q=31.8 size=     512KiB time=00:00:01.36 bitrate=3069.3kbits/s speed=0.0145x elapsed=0:01:34.49    \nframe=   84 fps=0.9 q=31.8 size=     512KiB time=00:00:01.36 bitrate=3069.3kbits/s speed=0.0144x elapsed=0:01:35.01    \nframe=   85 fps=0.9 q=33.4 size=     512KiB time=00:00:01.36 bitrate=3069.3kbits/s speed=0.0143x elapsed=0:01:35.56    \nframe=   85 fps=0.9 q=33.4 size=     512KiB time=00:00:01.38 bitrate=3032.3kbits/s speed=0.0144x elapsed=0:01:36.10    \nframe=   86 fps=0.9 q=33.3 size=     512KiB time=00:00:01.40 bitrate=2996.2kbits/s speed=0.0145x elapsed=0:01:36.62    \nframe=   87 fps=0.9 q=30.0 size=     512KiB time=00:00:01.41 bitrate=2960.9kbits/s speed=0.0146x elapsed=0:01:37.15    \nframe=   87 fps=0.9 q=30.0 size=     512KiB time=00:00:01.41 bitrate=2960.9kbits/s speed=0.0145x elapsed=0:01:37.67    \nframe=   87 fps=0.9 q=30.0 size=     512KiB time=00:00:01.41 bitrate=2960.9kbits/s speed=0.0144x elapsed=0:01:38.19    \nframe=   88 fps=0.9 q=32.0 size=     512KiB time=00:00:01.43 bitrate=2926.5kbits/s speed=0.0145x elapsed=0:01:38.70    \nframe=   89 fps=0.9 q=33.2 size=     512KiB time=00:00:01.45 bitrate=2892.9kbits/s speed=0.0146x elapsed=0:01:39.23    \nframe=   89 fps=0.9 q=33.2 size=     512KiB time=00:00:01.45 bitrate=2892.9kbits/s speed=0.0145x elapsed=0:01:39.75    \nframe=   90 fps=0.9 q=33.3 size=     512KiB time=00:00:01.46 bitrate=2860.0kbits/s speed=0.0146x elapsed=0:01:40.27    \nframe=   90 fps=0.9 q=33.3 size=     512KiB time=00:00:01.46 bitrate=2860.0kbits/s speed=0.0146x elapsed=0:01:40.79    \nframe=   91 fps=0.9 q=30.0 size=     512KiB time=00:00:01.48 bitrate=2827.9kbits/s speed=0.0146x elapsed=0:01:41.30    \nframe=   92 fps=0.9 q=32.1 size=     512KiB time=00:00:01.50 bitrate=2796.4kbits/s speed=0.0147x elapsed=0:01:41.81    \nframe=   92 fps=0.9 q=32.1 size=     512KiB time=00:00:01.50 bitrate=2796.4kbits/s speed=0.0147x elapsed=0:01:42.33    \nframe=   93 fps=0.9 q=33.5 size=     512KiB time=00:00:01.51 bitrate=2765.7kbits/s speed=0.0147x elapsed=0:01:42.87    \nframe=   93 fps=0.9 q=33.5 size=     512KiB time=00:00:01.51 bitrate=2765.7kbits/s speed=0.0147x elapsed=0:01:43.40    \nframe=   94 fps=0.9 q=33.1 size=     512KiB time=00:00:01.53 bitrate=2735.6kbits/s speed=0.0148x elapsed=0:01:43.92    \nframe=   95 fps=0.9 q=29.7 size=     512KiB time=00:00:01.55 bitrate=2706.2kbits/s speed=0.0148x elapsed=0:01:44.44    \nframe=   95 fps=0.9 q=29.7 size=     512KiB time=00:00:01.55 bitrate=2706.2kbits/s speed=0.0148x elapsed=0:01:44.96    \nframe=   96 fps=0.9 q=32.0 size=     512KiB time=00:00:01.56 bitrate=2677.4kbits/s speed=0.0149x elapsed=0:01:45.47    \nframe=   97 fps=0.9 q=33.1 size=     512KiB time=00:00:01.58 bitrate=2649.3kbits/s speed=0.0149x elapsed=0:01:45.99    \nframe=   98 fps=0.9 q=32.8 size=     512KiB time=00:00:01.60 bitrate=2621.7kbits/s speed=0.015x elapsed=0:01:46.51    \nframe=   98 fps=0.9 q=32.8 size=     512KiB time=00:00:01.60 bitrate=2621.7kbits/s speed=0.0149x elapsed=0:01:47.03    \nframe=   99 fps=0.9 q=29.9 size=     512KiB time=00:00:01.61 bitrate=2594.6kbits/s speed=0.015x elapsed=0:01:47.57    \nframe=  100 fps=0.9 q=33.0 size=     768KiB time=00:00:01.63 bitrate=3852.1kbits/s speed=0.0151x elapsed=0:01:48.07    \nframe=  100 fps=0.9 q=33.0 size=     768KiB time=00:00:01.63 bitrate=3852.1kbits/s speed=0.015x elapsed=0:01:48.59    \nframe=  100 fps=0.9 q=33.0 size=     768KiB time=00:00:01.63 bitrate=3852.1kbits/s speed=0.015x elapsed=0:01:49.11    \nframe=  101 fps=0.9 q=30.0 size=     768KiB time=00:00:01.65 bitrate=3813.2kbits/s speed=0.0151x elapsed=0:01:49.62    \nframe=  102 fps=0.9 q=31.8 size=     768KiB time=00:00:01.66 bitrate=3775.1kbits/s speed=0.0151x elapsed=0:01:50.14    \nframe=  102 fps=0.9 q=31.8 size=     768KiB time=00:00:01.66 bitrate=3775.1kbits/s speed=0.0151x elapsed=0:01:50.66    \nframe=  103 fps=0.9 q=33.3 size=     768KiB time=00:00:01.68 bitrate=3737.7kbits/s speed=0.0151x elapsed=0:01:51.17    \nframe=  104 fps=0.9 q=33.3 size=     768KiB time=00:00:01.70 bitrate=3701.1kbits/s speed=0.0152x elapsed=0:01:51.69    \nframe=  104 fps=0.9 q=33.3 size=     768KiB time=00:00:01.70 bitrate=3701.1kbits/s speed=0.0151x elapsed=0:01:52.21    \nframe=  105 fps=0.9 q=30.0 size=     768KiB time=00:00:01.71 bitrate=3665.1kbits/s speed=0.0152x elapsed=0:01:52.73    \nframe=  105 fps=0.9 q=30.0 size=     768KiB time=00:00:01.71 bitrate=3665.1kbits/s speed=0.0152x elapsed=0:01:53.25    \nframe=  106 fps=0.9 q=32.2 size=     768KiB time=00:00:01.73 bitrate=3629.9kbits/s speed=0.0152x elapsed=0:01:53.78    \nframe=  106 fps=0.9 q=32.2 size=     768KiB time=00:00:01.73 bitrate=3629.9kbits/s speed=0.0152x elapsed=0:01:54.30    \nframe=  106 fps=0.9 q=32.2 size=     768KiB time=00:00:01.73 bitrate=3629.9kbits/s speed=0.0151x elapsed=0:01:54.81    \nframe=  107 fps=0.9 q=33.6 size=     768KiB time=00:00:01.75 bitrate=3595.3kbits/s speed=0.0152x elapsed=0:01:55.33    \nframe=  108 fps=0.9 q=33.4 size=     768KiB time=00:00:01.76 bitrate=3561.4kbits/s speed=0.0152x elapsed=0:01:55.84    \nframe=  108 fps=0.9 q=33.4 size=     768KiB time=00:00:01.76 bitrate=3561.4kbits/s speed=0.0152x elapsed=0:01:56.40    \nframe=  109 fps=0.9 q=30.1 size=     768KiB time=00:00:01.78 bitrate=3528.1kbits/s speed=0.0153x elapsed=0:01:56.92    \nframe=  109 fps=0.9 q=30.1 size=     768KiB time=00:00:01.78 bitrate=3528.1kbits/s speed=0.0152x elapsed=0:01:57.45    \nframe=  110 fps=0.9 q=31.5 size=     768KiB time=00:00:01.80 bitrate=3495.4kbits/s speed=0.0153x elapsed=0:01:58.02    \nframe=  110 fps=0.9 q=31.5 size=     768KiB time=00:00:01.80 bitrate=3495.4kbits/s speed=0.0152x elapsed=0:01:58.54    \nframe=  111 fps=0.9 q=33.4 size=     768KiB time=00:00:01.81 bitrate=3463.4kbits/s speed=0.0153x elapsed=0:01:59.09    \nframe=  111 fps=0.9 q=33.4 size=     768KiB time=00:00:01.81 bitrate=3463.4kbits/s speed=0.0152x elapsed=0:01:59.64    \nframe=  112 fps=0.9 q=33.6 size=     768KiB time=00:00:01.83 bitrate=3431.9kbits/s speed=0.0153x elapsed=0:02:00.16    \nframe=  114 fps=0.9 q=31.6 size=     768KiB time=00:00:01.86 bitrate=3370.6kbits/s speed=0.0155x elapsed=0:02:00.67    \nframe=  114 fps=0.9 q=31.6 size=     768KiB time=00:00:01.86 bitrate=3370.6kbits/s speed=0.0154x elapsed=0:02:01.19    \nframe=  114 fps=0.9 q=31.6 size=     768KiB time=00:00:01.86 bitrate=3370.6kbits/s speed=0.0153x elapsed=0:02:01.72    \nframe=  114 fps=0.9 q=31.6 size=     768KiB time=00:00:01.86 bitrate=3370.6kbits/s speed=0.0153x elapsed=0:02:02.23    \nframe=  115 fps=0.9 q=33.6 size=     768KiB time=00:00:01.88 bitrate=3340.8kbits/s speed=0.0153x elapsed=0:02:02.75    \nframe=  115 fps=0.9 q=33.6 size=     768KiB time=00:00:01.88 bitrate=3340.8kbits/s speed=0.0153x elapsed=0:02:03.27    \nframe=  116 fps=0.9 q=33.0 size=     768KiB time=00:00:01.88 bitrate=3340.8kbits/s speed=0.0152x elapsed=0:02:03.81    \nframe=  116 fps=0.9 q=33.0 size=     768KiB time=00:00:01.90 bitrate=3311.5kbits/s speed=0.0153x elapsed=0:02:04.35    \nframe=  116 fps=0.9 q=33.0 size=     768KiB time=00:00:01.90 bitrate=3311.5kbits/s speed=0.0152x elapsed=0:02:04.91    \nframe=  117 fps=0.9 q=30.3 size=     768KiB time=00:00:01.91 bitrate=3282.7kbits/s speed=0.0153x elapsed=0:02:05.45    \nframe=  117 fps=0.9 q=30.3 size=     768KiB time=00:00:01.91 bitrate=3282.7kbits/s speed=0.0152x elapsed=0:02:05.97    \nframe=  118 fps=0.9 q=31.7 size=     768KiB time=00:00:01.93 bitrate=3254.4kbits/s speed=0.0153x elapsed=0:02:06.48    \nframe=  118 fps=0.9 q=31.7 size=     768KiB time=00:00:01.93 bitrate=3254.4kbits/s speed=0.0152x elapsed=0:02:07.00    \nframe=  120 fps=0.9 q=33.7 size=     768KiB time=00:00:01.96 bitrate=3199.2kbits/s speed=0.0154x elapsed=0:02:07.54    \nframe=  120 fps=0.9 q=33.7 size=     768KiB time=00:00:01.96 bitrate=3199.2kbits/s speed=0.0154x elapsed=0:02:08.05    \nframe=  121 fps=0.9 q=31.1 size=     768KiB time=00:00:01.98 bitrate=3172.3kbits/s speed=0.0154x elapsed=0:02:08.56    \nframe=  122 fps=0.9 q=32.4 size=     768KiB time=00:00:02.00 bitrate=3145.9kbits/s speed=0.0155x elapsed=0:02:09.08    \nframe=  122 fps=0.9 q=32.4 size=     768KiB time=00:00:02.00 bitrate=3145.9kbits/s speed=0.0154x elapsed=0:02:09.59    \nframe=  123 fps=0.9 q=33.8 size=     768KiB time=00:00:02.01 bitrate=3119.9kbits/s speed=0.0155x elapsed=0:02:10.12    \nframe=  124 fps=0.9 q=33.8 size=     768KiB time=00:00:02.03 bitrate=3094.3kbits/s speed=0.0156x elapsed=0:02:10.64    \nframe=  125 fps=1.0 q=31.3 size=     768KiB time=00:00:02.05 bitrate=3069.2kbits/s speed=0.0156x elapsed=0:02:11.17    \nframe=  126 fps=1.0 q=32.4 size=     768KiB time=00:00:02.06 bitrate=3044.4kbits/s speed=0.0157x elapsed=0:02:11.69    \nframe=  126 fps=1.0 q=32.4 size=     768KiB time=00:00:02.06 bitrate=3044.4kbits/s speed=0.0156x elapsed=0:02:12.21    \nframe=  126 fps=0.9 q=32.4 size=     768KiB time=00:00:02.06 bitrate=3044.4kbits/s speed=0.0156x elapsed=0:02:12.73    \nframe=  128 fps=1.0 q=33.8 size=     768KiB time=00:00:02.10 bitrate=2996.1kbits/s speed=0.0158x elapsed=0:02:13.26    \nframe=  129 fps=1.0 q=31.2 size=     768KiB time=00:00:02.11 bitrate=2972.5kbits/s speed=0.0158x elapsed=0:02:13.77    \nframe=  130 fps=1.0 q=32.3 size=    1024KiB time=00:00:02.13 bitrate=3932.3kbits/s speed=0.0159x elapsed=0:02:14.29    \nframe=  131 fps=1.0 q=33.8 size=    1024KiB time=00:00:02.15 bitrate=3901.8kbits/s speed=0.0159x elapsed=0:02:14.82    \nframe=  132 fps=1.0 q=34.0 size=    1024KiB time=00:00:02.16 bitrate=3871.8kbits/s speed=0.016x elapsed=0:02:15.34    \nframe=  133 fps=1.0 q=31.4 size=    1024KiB time=00:00:02.18 bitrate=3842.3kbits/s speed=0.0161x elapsed=0:02:15.86    \nframe=  134 fps=1.0 q=32.6 size=    1024KiB time=00:00:02.18 bitrate=3842.3kbits/s speed=0.016x elapsed=0:02:16.38    \nframe=  134 fps=1.0 q=32.6 size=    1024KiB time=00:00:02.20 bitrate=3813.2kbits/s speed=0.0161x elapsed=0:02:16.94    \nframe=  135 fps=1.0 q=33.9 size=    1024KiB time=00:00:02.21 bitrate=3784.5kbits/s speed=0.0161x elapsed=0:02:17.45    \nframe=  137 fps=1.0 q=31.6 size=    1024KiB time=00:00:02.25 bitrate=3728.4kbits/s speed=0.0163x elapsed=0:02:17.97    \nframe=  138 fps=1.0 q=32.6 size=    1024KiB time=00:00:02.26 bitrate=3701.0kbits/s speed=0.0164x elapsed=0:02:18.51    \nframe=  138 fps=1.0 q=32.6 size=    1024KiB time=00:00:02.26 bitrate=3701.0kbits/s speed=0.0163x elapsed=0:02:19.03    \nframe=  140 fps=1.0 q=34.1 size=    1024KiB time=00:00:02.30 bitrate=3647.4kbits/s speed=0.0165x elapsed=0:02:19.55    \nframe=  141 fps=1.0 q=31.5 size=    1024KiB time=00:00:02.31 bitrate=3621.1kbits/s speed=0.0165x elapsed=0:02:20.07    \nframe=  142 fps=1.0 q=32.9 size=    1024KiB time=00:00:02.33 bitrate=3595.3kbits/s speed=0.0166x elapsed=0:02:20.59    \nframe=  142 fps=1.0 q=32.9 size=    1024KiB time=00:00:02.33 bitrate=3595.3kbits/s speed=0.0165x elapsed=0:02:21.11    \nframe=  144 fps=1.0 q=34.1 size=    1024KiB time=00:00:02.36 bitrate=3544.6kbits/s speed=0.0167x elapsed=0:02:21.65    \nframe=  144 fps=1.0 q=34.1 size=    1024KiB time=00:00:02.36 bitrate=3544.6kbits/s speed=0.0166x elapsed=0:02:22.19    \nframe=  145 fps=1.0 q=31.7 size=    1024KiB time=00:00:02.38 bitrate=3519.8kbits/s speed=0.0167x elapsed=0:02:22.70    \nframe=  146 fps=1.0 q=32.9 size=    1024KiB time=00:00:02.40 bitrate=3495.4kbits/s speed=0.0168x elapsed=0:02:23.22    \nframe=  148 fps=1.0 q=34.2 size=    1024KiB time=00:00:02.43 bitrate=3447.5kbits/s speed=0.0169x elapsed=0:02:23.74    \nframe=  149 fps=1.0 q=31.8 size=    1024KiB time=00:00:02.45 bitrate=3424.1kbits/s speed=0.017x elapsed=0:02:24.27    \nframe=  149 fps=1.0 q=31.8 size=    1024KiB time=00:00:02.45 bitrate=3424.1kbits/s speed=0.0169x elapsed=0:02:24.78    \nframe=  150 fps=1.0 q=33.0 size=    1024KiB time=00:00:02.46 bitrate=3400.9kbits/s speed=0.017x elapsed=0:02:25.31    \nframe=  150 fps=1.0 q=33.0 size=    1024KiB time=00:00:02.46 bitrate=3400.9kbits/s speed=0.0169x elapsed=0:02:25.83    \nframe=  152 fps=1.0 q=34.2 size=    1024KiB time=00:00:02.50 bitrate=3355.6kbits/s speed=0.0171x elapsed=0:02:26.36    \nframe=  152 fps=1.0 q=34.2 size=    1024KiB time=00:00:02.50 bitrate=3355.6kbits/s speed=0.017x elapsed=0:02:26.87    \nframe=  153 fps=1.0 q=31.6 size=    1024KiB time=00:00:02.51 bitrate=3333.4kbits/s speed=0.0171x elapsed=0:02:27.39    \nframe=  153 fps=1.0 q=31.6 size=    1024KiB time=00:00:02.51 bitrate=3333.4kbits/s speed=0.017x elapsed=0:02:27.90    \nframe=  155 fps=1.0 q=34.3 size=    1024KiB time=00:00:02.55 bitrate=3289.8kbits/s speed=0.0172x elapsed=0:02:28.42    \nframe=  156 fps=1.0 q=34.3 size=    1024KiB time=00:00:02.56 bitrate=3268.4kbits/s speed=0.0172x elapsed=0:02:28.96    \nframe=  156 fps=1.0 q=34.3 size=    1024KiB time=00:00:02.56 bitrate=3268.4kbits/s speed=0.0172x elapsed=0:02:29.46    \nframe=  157 fps=1.0 q=31.6 size=    1024KiB time=00:00:02.58 bitrate=3247.3kbits/s speed=0.0172x elapsed=0:02:29.99    \nframe=  157 fps=1.0 q=31.6 size=    1024KiB time=00:00:02.58 bitrate=3247.3kbits/s speed=0.0172x elapsed=0:02:30.54    \nframe=  158 fps=1.0 q=33.0 size=    1024KiB time=00:00:02.60 bitrate=3226.5kbits/s speed=0.0172x elapsed=0:02:31.10    \nframe=  158 fps=1.0 q=33.0 size=    1024KiB time=00:00:02.60 bitrate=3226.5kbits/s speed=0.0171x elapsed=0:02:31.62    \nframe=  160 fps=1.1 q=34.4 size=    1280KiB time=00:00:02.63 bitrate=3982.1kbits/s speed=0.0173x elapsed=0:02:32.17    \nframe=  161 fps=1.1 q=31.6 size=    1280KiB time=00:00:02.65 bitrate=3957.0kbits/s speed=0.0174x elapsed=0:02:32.69    \nframe=  161 fps=1.1 q=31.6 size=    1280KiB time=00:00:02.65 bitrate=3957.0kbits/s speed=0.0173x elapsed=0:02:33.21    \nframe=  162 fps=1.1 q=33.0 size=    1280KiB time=00:00:02.66 bitrate=3932.3kbits/s speed=0.0173x elapsed=0:02:33.72    \nframe=  164 fps=1.1 q=34.4 size=    1280KiB time=00:00:02.70 bitrate=3883.7kbits/s speed=0.0175x elapsed=0:02:34.23    \nframe=  165 fps=1.1 q=31.8 size=    1280KiB time=00:00:02.71 bitrate=3859.9kbits/s speed=0.0176x elapsed=0:02:34.76    \nframe=  166 fps=1.1 q=33.1 size=    1280KiB time=00:00:02.73 bitrate=3836.4kbits/s speed=0.0176x elapsed=0:02:35.27    \nframe=  166 fps=1.1 q=33.1 size=    1280KiB time=00:00:02.73 bitrate=3836.4kbits/s speed=0.0175x elapsed=0:02:35.78    \nframe=  168 fps=1.1 q=34.4 size=    1280KiB time=00:00:02.76 bitrate=3790.2kbits/s speed=0.0177x elapsed=0:02:36.29    \nframe=  168 fps=1.1 q=34.4 size=    1280KiB time=00:00:02.76 bitrate=3790.2kbits/s speed=0.0176x elapsed=0:02:36.81    \nframe=  169 fps=1.1 q=31.6 size=    1280KiB time=00:00:02.78 bitrate=3767.5kbits/s speed=0.0177x elapsed=0:02:37.34    \nframe=  170 fps=1.1 q=32.9 size=    1280KiB time=00:00:02.80 bitrate=3745.0kbits/s speed=0.0177x elapsed=0:02:37.84    \nframe=  171 fps=1.1 q=34.3 size=    1280KiB time=00:00:02.81 bitrate=3722.9kbits/s speed=0.0178x elapsed=0:02:38.36    \nframe=  171 fps=1.1 q=34.3 size=    1280KiB time=00:00:02.81 bitrate=3722.9kbits/s speed=0.0177x elapsed=0:02:38.88    \nframe=  172 fps=1.1 q=34.4 size=    1280KiB time=00:00:02.83 bitrate=3701.0kbits/s speed=0.0178x elapsed=0:02:39.40    \nframe=  173 fps=1.1 q=31.5 size=    1280KiB time=00:00:02.85 bitrate=3679.3kbits/s speed=0.0178x elapsed=0:02:39.92    \nframe=  174 fps=1.1 q=33.1 size=    1280KiB time=00:00:02.86 bitrate=3657.9kbits/s speed=0.0179x elapsed=0:02:40.44    \nframe=  174 fps=1.1 q=33.1 size=    1280KiB time=00:00:02.86 bitrate=3657.9kbits/s speed=0.0178x elapsed=0:02:40.96    \nframe=  176 fps=1.1 q=34.3 size=    1280KiB time=00:00:02.90 bitrate=3615.9kbits/s speed=0.018x elapsed=0:02:41.47    \nframe=  176 fps=1.1 q=34.3 size=    1280KiB time=00:00:02.90 bitrate=3615.9kbits/s speed=0.0179x elapsed=0:02:42.01    \nframe=  178 fps=1.1 q=32.9 size=    1280KiB time=00:00:02.93 bitrate=3574.8kbits/s speed=0.018x elapsed=0:02:42.55    \nframe=  178 fps=1.1 q=32.9 size=    1280KiB time=00:00:02.93 bitrate=3574.8kbits/s speed=0.018x elapsed=0:02:43.06    \nframe=  178 fps=1.1 q=32.9 size=    1280KiB time=00:00:02.93 bitrate=3574.8kbits/s speed=0.0179x elapsed=0:02:43.58    \nframe=  180 fps=1.1 q=34.2 size=    1280KiB time=00:00:02.96 bitrate=3534.6kbits/s speed=0.0181x elapsed=0:02:44.10    \nframe=  181 fps=1.1 q=31.0 size=    1280KiB time=00:00:02.98 bitrate=3514.9kbits/s speed=0.0181x elapsed=0:02:44.60    \nframe=  182 fps=1.1 q=32.9 size=    1280KiB time=00:00:03.00 bitrate=3495.4kbits/s speed=0.0182x elapsed=0:02:45.12    \nframe=  182 fps=1.1 q=32.9 size=    1280KiB time=00:00:03.00 bitrate=3495.4kbits/s speed=0.0181x elapsed=0:02:45.64    \nframe=  184 fps=1.1 q=30.9 size=    1280KiB time=00:00:03.01 bitrate=3476.1kbits/s speed=0.0182x elapsed=0:02:46.16    \nframe=  185 fps=1.1 q=32.8 size=    1280KiB time=00:00:03.05 bitrate=3438.1kbits/s speed=0.0183x elapsed=0:02:46.69    \nframe=  186 fps=1.1 q=34.2 size=    1280KiB time=00:00:03.06 bitrate=3419.4kbits/s speed=0.0183x elapsed=0:02:47.20    \nframe=  187 fps=1.1 q=34.1 size=    1280KiB time=00:00:03.08 bitrate=3400.9kbits/s speed=0.0184x elapsed=0:02:47.75    \nframe=  188 fps=1.1 q=30.8 size=    1280KiB time=00:00:03.10 bitrate=3382.6kbits/s speed=0.0184x elapsed=0:02:48.27    \nframe=  189 fps=1.1 q=32.8 size=    1536KiB time=00:00:03.11 bitrate=4037.4kbits/s speed=0.0185x elapsed=0:02:48.79    \nframe=  190 fps=1.1 q=34.1 size=    1536KiB time=00:00:03.11 bitrate=4037.4kbits/s speed=0.0184x elapsed=0:02:49.30    \nframe=  191 fps=1.1 q=34.0 size=    1536KiB time=00:00:03.15 bitrate=3994.7kbits/s speed=0.0185x elapsed=0:02:49.85    \nframe=  192 fps=1.1 q=30.9 size=    1536KiB time=00:00:03.16 bitrate=3973.7kbits/s speed=0.0186x elapsed=0:02:50.37    \nframe=  193 fps=1.1 q=31.8 size=    1536KiB time=00:00:03.18 bitrate=3952.9kbits/s speed=0.0186x elapsed=0:02:50.89    \nframe=  193 fps=1.1 q=31.8 size=    1536KiB time=00:00:03.18 bitrate=3952.9kbits/s speed=0.0186x elapsed=0:02:51.42    \nframe=  195 fps=1.1 q=33.9 size=    1536KiB time=00:00:03.21 bitrate=3911.9kbits/s speed=0.0187x elapsed=0:02:51.94    \nframe=  196 fps=1.1 q=33.9 size=    1536KiB time=00:00:03.23 bitrate=3891.7kbits/s speed=0.0187x elapsed=0:02:52.46    \nframe=  197 fps=1.1 q=30.5 size=    1536KiB time=00:00:03.25 bitrate=3871.8kbits/s speed=0.0188x elapsed=0:02:52.99    \nframe=  198 fps=1.1 q=32.4 size=    1536KiB time=00:00:03.26 bitrate=3852.0kbits/s speed=0.0188x elapsed=0:02:53.54    \nframe=  198 fps=1.1 q=32.4 size=    1536KiB time=00:00:03.26 bitrate=3852.0kbits/s speed=0.0188x elapsed=0:02:54.06    \nframe=  199 fps=1.1 q=33.9 size=    1536KiB time=00:00:03.28 bitrate=3832.5kbits/s speed=0.0188x elapsed=0:02:54.58    \nframe=  200 fps=1.1 q=33.8 size=    1536KiB time=00:00:03.30 bitrate=3813.1kbits/s speed=0.0188x elapsed=0:02:55.12    \nframe=  200 fps=1.1 q=33.8 size=    1536KiB time=00:00:03.30 bitrate=3813.1kbits/s speed=0.0188x elapsed=0:02:55.66    \nframe=  201 fps=1.1 q=30.2 size=    1536KiB time=00:00:03.31 bitrate=3793.9kbits/s speed=0.0188x elapsed=0:02:56.18    \nframe=  201 fps=1.1 q=30.2 size=    1536KiB time=00:00:03.31 bitrate=3793.9kbits/s speed=0.0188x elapsed=0:02:56.70    \nframe=  202 fps=1.1 q=32.2 size=    1536KiB time=00:00:03.33 bitrate=3775.0kbits/s speed=0.0188x elapsed=0:02:57.22    \nframe=  204 fps=1.1 q=33.8 size=    1536KiB time=00:00:03.36 bitrate=3737.6kbits/s speed=0.0189x elapsed=0:02:57.74    \nframe=  204 fps=1.1 q=33.8 size=    1536KiB time=00:00:03.36 bitrate=3737.6kbits/s speed=0.0189x elapsed=0:02:58.25    \nframe=  206 fps=1.2 q=32.3 size=    1536KiB time=00:00:03.40 bitrate=3701.0kbits/s speed=0.019x elapsed=0:02:58.77    \nframe=  206 fps=1.1 q=32.3 size=    1536KiB time=00:00:03.40 bitrate=3701.0kbits/s speed=0.019x elapsed=0:02:59.28    \nframe=  208 fps=1.2 q=33.7 size=    1536KiB time=00:00:03.43 bitrate=3665.0kbits/s speed=0.0191x elapsed=0:02:59.80    \nframe=  209 fps=1.2 q=29.6 size=    1536KiB time=00:00:03.45 bitrate=3647.3kbits/s speed=0.0191x elapsed=0:03:00.32    \nframe=  210 fps=1.2 q=32.1 size=    1536KiB time=00:00:03.46 bitrate=3629.8kbits/s speed=0.0192x elapsed=0:03:00.83    \nframe=  212 fps=1.2 q=33.7 size=    1536KiB time=00:00:03.50 bitrate=3595.2kbits/s speed=0.0193x elapsed=0:03:01.35    \nframe=  213 fps=1.2 q=29.8 size=    1536KiB time=00:00:03.50 bitrate=3595.2kbits/s speed=0.0192x elapsed=0:03:01.88    \nframe=  213 fps=1.2 q=29.8 size=    1536KiB time=00:00:03.51 bitrate=3578.2kbits/s speed=0.0193x elapsed=0:03:02.39    \nframe=  215 fps=1.2 q=33.6 size=    1536KiB time=00:00:03.55 bitrate=3544.6kbits/s speed=0.0194x elapsed=0:03:02.91    \nframe=  216 fps=1.2 q=33.5 size=    1536KiB time=00:00:03.56 bitrate=3528.0kbits/s speed=0.0194x elapsed=0:03:03.43    \nframe=  218 fps=1.2 q=31.9 size=    1536KiB time=00:00:03.60 bitrate=3495.4kbits/s speed=0.0196x elapsed=0:03:03.93    \nframe=  220 fps=1.2 q=33.6 size=    1536KiB time=00:00:03.63 bitrate=3463.3kbits/s speed=0.0197x elapsed=0:03:04.46    \nframe=  221 fps=1.2 q=28.7 size=    1536KiB time=00:00:03.65 bitrate=3447.5kbits/s speed=0.0197x elapsed=0:03:05.02    \nframe=  222 fps=1.2 q=31.8 size=    1792KiB time=00:00:03.66 bitrate=4003.7kbits/s speed=0.0198x elapsed=0:03:05.53    \nframe=  224 fps=1.2 q=33.6 size=    1792KiB time=00:00:03.70 bitrate=3967.7kbits/s speed=0.0199x elapsed=0:03:06.05    \nframe=  225 fps=1.2 q=28.5 size=    1792KiB time=00:00:03.71 bitrate=3949.9kbits/s speed=0.0199x elapsed=0:03:06.57    \nframe=  226 fps=1.2 q=31.7 size=    1792KiB time=00:00:03.73 bitrate=3932.3kbits/s speed=0.02x elapsed=0:03:07.09    \nframe=  226 fps=1.2 q=31.7 size=    1792KiB time=00:00:03.73 bitrate=3932.3kbits/s speed=0.0199x elapsed=0:03:07.61    \nframe=  228 fps=1.2 q=33.6 size=    1792KiB time=00:00:03.76 bitrate=3897.5kbits/s speed=0.02x elapsed=0:03:08.12    \nframe=  229 fps=1.2 q=28.6 size=    1792KiB time=00:00:03.78 bitrate=3880.3kbits/s speed=0.0201x elapsed=0:03:08.64    \nframe=  230 fps=1.2 q=31.4 size=    1792KiB time=00:00:03.80 bitrate=3863.3kbits/s speed=0.0201x elapsed=0:03:09.16    \nframe=  232 fps=1.2 q=33.4 size=    1792KiB time=00:00:03.83 bitrate=3829.7kbits/s speed=0.0202x elapsed=0:03:09.69    \nframe=  232 fps=1.2 q=33.4 size=    1792KiB time=00:00:03.83 bitrate=3829.7kbits/s speed=0.0202x elapsed=0:03:10.21    \nframe=  233 fps=1.2 q=28.7 size=    1792KiB time=00:00:03.85 bitrate=3813.1kbits/s speed=0.0202x elapsed=0:03:10.74    \nframe=  234 fps=1.2 q=31.4 size=    1792KiB time=00:00:03.86 bitrate=3796.7kbits/s speed=0.0202x elapsed=0:03:11.25    \nframe=  235 fps=1.2 q=33.5 size=    1792KiB time=00:00:03.88 bitrate=3780.4kbits/s speed=0.0202x elapsed=0:03:11.77    \nframe=  236 fps=1.2 q=33.2 size=    1792KiB time=00:00:03.90 bitrate=3764.2kbits/s speed=0.0203x elapsed=0:03:12.30    \nframe=  236 fps=1.2 q=33.2 size=    1792KiB time=00:00:03.90 bitrate=3764.2kbits/s speed=0.0202x elapsed=0:03:12.82    \nframe=  237 fps=1.2 q=29.1 size=    1792KiB time=00:00:03.91 bitrate=3748.2kbits/s speed=0.0203x elapsed=0:03:13.33    \nframe=  237 fps=1.2 q=29.1 size=    1792KiB time=00:00:03.91 bitrate=3748.2kbits/s speed=0.0202x elapsed=0:03:13.85    \nframe=  238 fps=1.2 q=31.4 size=    1792KiB time=00:00:03.93 bitrate=3732.3kbits/s speed=0.0202x elapsed=0:03:14.37    \nframe=  240 fps=1.2 q=33.3 size=    1792KiB time=00:00:03.96 bitrate=3700.9kbits/s speed=0.0204x elapsed=0:03:14.90    \nframe=  240 fps=1.2 q=33.3 size=    1792KiB time=00:00:03.96 bitrate=3700.9kbits/s speed=0.0203x elapsed=0:03:15.41    \nframe=  241 fps=1.2 q=28.8 size=    1792KiB time=00:00:03.98 bitrate=3685.5kbits/s speed=0.0203x elapsed=0:03:15.92    \nframe=  242 fps=1.2 q=30.9 size=    1792KiB time=00:00:04.00 bitrate=3670.1kbits/s speed=0.0204x elapsed=0:03:16.45    \nframe=  243 fps=1.2 q=33.3 size=    1792KiB time=00:00:04.01 bitrate=3654.9kbits/s speed=0.0204x elapsed=0:03:16.98    \nframe=  244 fps=1.2 q=33.7 size=    1792KiB time=00:00:04.03 bitrate=3639.8kbits/s speed=0.0204x elapsed=0:03:17.50    \nframe=  244 fps=1.2 q=33.7 size=    1792KiB time=00:00:04.03 bitrate=3639.8kbits/s speed=0.0204x elapsed=0:03:18.02    \nframe=  245 fps=1.2 q=29.1 size=    1792KiB time=00:00:04.05 bitrate=3624.8kbits/s speed=0.0204x elapsed=0:03:18.53    \nframe=  245 fps=1.2 q=29.1 size=    1792KiB time=00:00:04.05 bitrate=3624.8kbits/s speed=0.0203x elapsed=0:03:19.07    \nframe=  246 fps=1.2 q=30.8 size=    1792KiB time=00:00:04.06 bitrate=3609.9kbits/s speed=0.0204x elapsed=0:03:19.59    \nframe=  247 fps=1.2 q=33.5 size=    1792KiB time=00:00:04.08 bitrate=3595.2kbits/s speed=0.0204x elapsed=0:03:20.11    \nframe=  249 fps=1.2 q=27.0 size=    1792KiB time=00:00:04.11 bitrate=3566.1kbits/s speed=0.0205x elapsed=0:03:20.63    \nframe=  250 fps=1.2 q=30.7 size=    1792KiB time=00:00:04.13 bitrate=3551.7kbits/s speed=0.0205x elapsed=0:03:21.15    \nframe=  250 fps=1.2 q=30.7 size=    1792KiB time=00:00:04.13 bitrate=3551.7kbits/s speed=0.0205x elapsed=0:03:21.67    \nframe=  250 fps=1.2 q=30.7 size=    1792KiB time=00:00:04.13 bitrate=3551.7kbits/s speed=0.0204x elapsed=0:03:22.19    \nframe=  253 fps=1.2 q=30.9 size=    2048KiB time=00:00:04.18 bitrate=4010.6kbits/s speed=0.0206x elapsed=0:03:22.70    \nframe=  254 fps=1.2 q=33.3 size=    2048KiB time=00:00:04.20 bitrate=3994.7kbits/s speed=0.0207x elapsed=0:03:23.22    \nframe=  255 fps=1.3 q=33.3 size=    2048KiB time=00:00:04.21 bitrate=3978.9kbits/s speed=0.0207x elapsed=0:03:23.74    \nframe=  255 fps=1.2 q=33.3 size=    2048KiB time=00:00:04.21 bitrate=3978.9kbits/s speed=0.0206x elapsed=0:03:24.26    \nframe=  256 fps=1.3 q=29.6 size=    2048KiB time=00:00:04.23 bitrate=3963.2kbits/s speed=0.0207x elapsed=0:03:24.76    \nframe=  257 fps=1.3 q=31.1 size=    2048KiB time=00:00:04.25 bitrate=3947.7kbits/s speed=0.0207x elapsed=0:03:25.29    \nframe=  257 fps=1.2 q=31.1 size=    2048KiB time=00:00:04.25 bitrate=3947.7kbits/s speed=0.0207x elapsed=0:03:25.81    \nframe=  259 fps=1.3 q=33.1 size=    2048KiB time=00:00:04.28 bitrate=3916.9kbits/s speed=0.0208x elapsed=0:03:26.31    \nframe=  260 fps=1.3 q=29.7 size=    2048KiB time=00:00:04.30 bitrate=3901.8kbits/s speed=0.0208x elapsed=0:03:26.83    \nframe=  260 fps=1.3 q=29.7 size=    2048KiB time=00:00:04.30 bitrate=3901.8kbits/s speed=0.0207x elapsed=0:03:27.37    \nframe=  261 fps=1.3 q=31.5 size=    2048KiB time=00:00:04.31 bitrate=3886.7kbits/s speed=0.0208x elapsed=0:03:27.90    \nframe=  261 fps=1.3 q=31.5 size=    2048KiB time=00:00:04.31 bitrate=3886.7kbits/s speed=0.0207x elapsed=0:03:28.46    \nframe=  262 fps=1.3 q=33.3 size=    2048KiB time=00:00:04.33 bitrate=3871.7kbits/s speed=0.0207x elapsed=0:03:28.98    \nframe=  263 fps=1.3 q=33.2 size=    2048KiB time=00:00:04.35 bitrate=3856.9kbits/s speed=0.0208x elapsed=0:03:29.49    \nframe=  264 fps=1.3 q=30.1 size=    2048KiB time=00:00:04.36 bitrate=3842.2kbits/s speed=0.0208x elapsed=0:03:30.01    \nframe=  265 fps=1.3 q=31.2 size=    2048KiB time=00:00:04.38 bitrate=3827.6kbits/s speed=0.0208x elapsed=0:03:30.53    \nframe=  265 fps=1.3 q=31.2 size=    2048KiB time=00:00:04.38 bitrate=3827.6kbits/s speed=0.0208x elapsed=0:03:31.07    \nframe=  267 fps=1.3 q=33.1 size=    2048KiB time=00:00:04.41 bitrate=3798.7kbits/s speed=0.0209x elapsed=0:03:31.60    \nframe=  268 fps=1.3 q=29.9 size=    2048KiB time=00:00:04.43 bitrate=3784.4kbits/s speed=0.0209x elapsed=0:03:32.11    \nframe=  268 fps=1.3 q=29.9 size=    2048KiB time=00:00:04.43 bitrate=3784.4kbits/s speed=0.0208x elapsed=0:03:32.64    \nframe=  269 fps=1.3 q=31.6 size=    2048KiB time=00:00:04.45 bitrate=3770.2kbits/s speed=0.0209x elapsed=0:03:33.16    \nframe=  270 fps=1.3 q=33.3 size=    2048KiB time=00:00:04.46 bitrate=3756.2kbits/s speed=0.0209x elapsed=0:03:33.69    \nframe=  271 fps=1.3 q=33.4 size=    2048KiB time=00:00:04.48 bitrate=3742.2kbits/s speed=0.0209x elapsed=0:03:34.22    \nframe=  272 fps=1.3 q=29.7 size=    2048KiB time=00:00:04.50 bitrate=3728.3kbits/s speed=0.021x elapsed=0:03:34.74    \nframe=  272 fps=1.3 q=29.7 size=    2048KiB time=00:00:04.50 bitrate=3728.3kbits/s speed=0.0209x elapsed=0:03:35.29    \nframe=  274 fps=1.3 q=33.4 size=    2048KiB time=00:00:04.53 bitrate=3700.9kbits/s speed=0.021x elapsed=0:03:35.83    \nframe=  274 fps=1.3 q=33.4 size=    2048KiB time=00:00:04.53 bitrate=3700.9kbits/s speed=0.021x elapsed=0:03:36.35    \nframe=  275 fps=1.3 q=33.6 size=    2048KiB time=00:00:04.55 bitrate=3687.4kbits/s speed=0.021x elapsed=0:03:36.87    \nframe=  275 fps=1.3 q=33.6 size=    2048KiB time=00:00:04.55 bitrate=3687.4kbits/s speed=0.0209x elapsed=0:03:37.41    \nframe=  276 fps=1.3 q=30.3 size=    2048KiB time=00:00:04.56 bitrate=3673.9kbits/s speed=0.021x elapsed=0:03:37.92    \nframe=  277 fps=1.3 q=31.6 size=    2048KiB time=00:00:04.58 bitrate=3660.6kbits/s speed=0.021x elapsed=0:03:38.44    \nframe=  277 fps=1.3 q=31.6 size=    2048KiB time=00:00:04.58 bitrate=3660.6kbits/s speed=0.0209x elapsed=0:03:38.96    \nframe=  279 fps=1.3 q=33.5 size=    2048KiB time=00:00:04.61 bitrate=3634.1kbits/s speed=0.021x elapsed=0:03:39.48    \nframe=  279 fps=1.3 q=33.5 size=    2048KiB time=00:00:04.61 bitrate=3634.1kbits/s speed=0.021x elapsed=0:03:40.00    \nframe=  280 fps=1.3 q=30.6 size=    2048KiB time=00:00:04.63 bitrate=3621.1kbits/s speed=0.021x elapsed=0:03:40.53    \nframe=  280 fps=1.3 q=30.6 size=    2048KiB time=00:00:04.63 bitrate=3621.1kbits/s speed=0.021x elapsed=0:03:41.04    \nframe=  281 fps=1.3 q=32.0 size=    2048KiB time=00:00:04.65 bitrate=3608.1kbits/s speed=0.021x elapsed=0:03:41.57    \nframe=  282 fps=1.3 q=33.5 size=    2048KiB time=00:00:04.66 bitrate=3595.2kbits/s speed=0.021x elapsed=0:03:42.09    \nframe=  283 fps=1.3 q=33.6 size=    2048KiB time=00:00:04.68 bitrate=3582.4kbits/s speed=0.021x elapsed=0:03:42.61    \nframe=  283 fps=1.3 q=33.6 size=    2048KiB time=00:00:04.68 bitrate=3582.4kbits/s speed=0.021x elapsed=0:03:43.13    \nframe=  284 fps=1.3 q=30.8 size=    2048KiB time=00:00:04.70 bitrate=3569.7kbits/s speed=0.021x elapsed=0:03:43.64    \nframe=  284 fps=1.3 q=30.8 size=    2048KiB time=00:00:04.70 bitrate=3569.7kbits/s speed=0.021x elapsed=0:03:44.17    \nframe=  286 fps=1.3 q=33.6 size=    2304KiB time=00:00:04.73 bitrate=3987.6kbits/s speed=0.0211x elapsed=0:03:44.69    \nframe=  287 fps=1.3 q=33.7 size=    2304KiB time=00:00:04.75 bitrate=3973.6kbits/s speed=0.0211x elapsed=0:03:45.20    \nframe=  287 fps=1.3 q=33.7 size=    2304KiB time=00:00:04.75 bitrate=3973.6kbits/s speed=0.021x elapsed=0:03:45.72    \nframe=  288 fps=1.3 q=31.0 size=    2304KiB time=00:00:04.76 bitrate=3959.7kbits/s speed=0.0211x elapsed=0:03:46.26    \nframe=  289 fps=1.3 q=32.6 size=    2304KiB time=00:00:04.78 bitrate=3945.9kbits/s speed=0.0211x elapsed=0:03:46.78    \nframe=  290 fps=1.3 q=33.7 size=    2304KiB time=00:00:04.80 bitrate=3932.2kbits/s speed=0.0211x elapsed=0:03:47.31    \nframe=  292 fps=1.3 q=33.7 size=    2304KiB time=00:00:04.83 bitrate=3905.1kbits/s speed=0.0212x elapsed=0:03:47.85    \nframe=  292 fps=1.3 q=33.7 size=    2304KiB time=00:00:04.83 bitrate=3905.1kbits/s speed=0.0212x elapsed=0:03:48.39    \nframe=  293 fps=1.3 q=31.2 size=    2304KiB time=00:00:04.85 bitrate=3891.7kbits/s speed=0.0212x elapsed=0:03:48.90    \nframe=  294 fps=1.3 q=32.6 size=    2304KiB time=00:00:04.86 bitrate=3878.4kbits/s speed=0.0212x elapsed=0:03:49.45    \nframe=  294 fps=1.3 q=32.6 size=    2304KiB time=00:00:04.86 bitrate=3878.4kbits/s speed=0.0212x elapsed=0:03:49.98    \nframe=  295 fps=1.3 q=33.9 size=    2304KiB time=00:00:04.88 bitrate=3865.1kbits/s speed=0.0212x elapsed=0:03:50.50    \nframe=  296 fps=1.3 q=33.9 size=    2304KiB time=00:00:04.90 bitrate=3852.0kbits/s speed=0.0212x elapsed=0:03:51.06    \nframe=  296 fps=1.3 q=33.9 size=    2304KiB time=00:00:04.90 bitrate=3852.0kbits/s speed=0.0212x elapsed=0:03:51.60    \nframe=  297 fps=1.3 q=31.7 size=    2304KiB time=00:00:04.91 bitrate=3838.9kbits/s speed=0.0212x elapsed=0:03:52.12    \nframe=  298 fps=1.3 q=32.5 size=    2304KiB time=00:00:04.93 bitrate=3826.0kbits/s speed=0.0212x elapsed=0:03:52.66    \n[mp4 @ 00000278fcb07a00] Starting second pass: moving the moov atom to the beginning of the file\n[out#0/mp4 @ 00000278fcb07900] video:2434KiB audio:0KiB subtitle:0KiB other streams:0KiB global headers:2KiB muxing overhead: 0.291162%\nframe=  300 fps=1.3 q=33.9 Lsize=    2441KiB time=00:00:04.96 bitrate=4026.9kbits/s speed=0.0213x elapsed=0:03:52.93    \nx265 [info]: frame I:      2, Avg QP:31.46  kb/s: 5417.76 \nx265 [info]: frame P:     74, Avg QP:30.57  kb/s: 5472.85 \nx265 [info]: frame B:    224, Avg QP:33.29  kb/s: 3482.72 \nx265 [info]: Weighted P-Frames: Y:2.7% UV:2.7%\n\nencoded 300 frames in 232.70s (1.29 fps), 3986.52 kb/s, Avg QP:32.60\n",
  "seconds": 233.2565450668335,
  "probe_out": {}
}